<mxfile host="app.diagrams.net" agent="Mozilla/5.0 (Windows NT 10.0; Win64; x64) AppleWebKit/537.36 (KHTML, like Gecko) Chrome/137.0.0.0 Safari/537.36" version="27.2.0">
  <diagram name="Página-1" id="NLWs8_ROX9XKx5foF2iA">
    <mxGraphModel grid="1" page="1" gridSize="10" guides="1" tooltips="1" connect="1" arrows="1" fold="1" pageScale="1" pageWidth="827" pageHeight="1169" math="0" shadow="0">
      <root>
        <mxCell id="0" />
        <mxCell id="1" parent="0" />
        <mxCell id="_4PlKvlCJdcLuJ5PgpxI-1" value="CLIENTE" style="shape=umlActor;verticalLabelPosition=bottom;verticalAlign=top;html=1;outlineConnect=0;" vertex="1" parent="1">
          <mxGeometry x="40" y="30" width="80" height="90" as="geometry" />
        </mxCell>
        <mxCell id="_4PlKvlCJdcLuJ5PgpxI-3" value="PROVEEDOR" style="shape=umlActor;verticalLabelPosition=bottom;verticalAlign=top;html=1;outlineConnect=0;" vertex="1" parent="1">
          <mxGeometry x="710" y="30" width="80" height="90" as="geometry" />
        </mxCell>
        <mxCell id="_4PlKvlCJdcLuJ5PgpxI-4" value="MODERADOR" style="shape=umlActor;verticalLabelPosition=bottom;verticalAlign=top;html=1;outlineConnect=0;" vertex="1" parent="1">
          <mxGeometry x="620" y="420" width="77.5" height="90" as="geometry" />
        </mxCell>
        <mxCell id="_4PlKvlCJdcLuJ5PgpxI-6" value="SERVICIO" style="ellipse;whiteSpace=wrap;html=1;" vertex="1" parent="1">
          <mxGeometry x="330" y="35" width="120" height="80" as="geometry" />
        </mxCell>
        <mxCell id="_4PlKvlCJdcLuJ5PgpxI-8" value="" style="shape=flexArrow;endArrow=classic;html=1;rounded=0;fillColor=#60a917;strokeColor=#2D7600;" edge="1" parent="1" source="_4PlKvlCJdcLuJ5PgpxI-1">
          <mxGeometry width="50" height="50" relative="1" as="geometry">
            <mxPoint x="290" y="150" as="sourcePoint" />
            <mxPoint x="330" y="75" as="targetPoint" />
          </mxGeometry>
        </mxCell>
        <mxCell id="_4PlKvlCJdcLuJ5PgpxI-10" value="CONTRATA" style="text;html=1;align=center;verticalAlign=middle;resizable=0;points=[];autosize=1;strokeColor=#2D7600;fillColor=#60a917;fontColor=#ffffff;" vertex="1" parent="1">
          <mxGeometry x="170" y="50" width="90" height="30" as="geometry" />
        </mxCell>
        <mxCell id="_4PlKvlCJdcLuJ5PgpxI-11" value="" style="shape=flexArrow;endArrow=classic;html=1;rounded=0;entryX=1;entryY=0.5;entryDx=0;entryDy=0;fillColor=#1ba1e2;strokeColor=#006EAF;" edge="1" parent="1" source="_4PlKvlCJdcLuJ5PgpxI-3" target="_4PlKvlCJdcLuJ5PgpxI-6">
          <mxGeometry width="50" height="50" relative="1" as="geometry">
            <mxPoint x="490" y="80" as="sourcePoint" />
            <mxPoint x="700" y="80" as="targetPoint" />
          </mxGeometry>
        </mxCell>
        <mxCell id="_4PlKvlCJdcLuJ5PgpxI-12" value="CONFIRMA CONTRATO" style="text;html=1;align=center;verticalAlign=middle;resizable=0;points=[];autosize=1;strokeColor=#006EAF;fillColor=#1ba1e2;fontColor=#ffffff;" vertex="1" parent="1">
          <mxGeometry x="500" y="50" width="160" height="30" as="geometry" />
        </mxCell>
        <mxCell id="_4PlKvlCJdcLuJ5PgpxI-14" value="SERVICIOS PROPIOS" style="ellipse;whiteSpace=wrap;html=1;" vertex="1" parent="1">
          <mxGeometry x="520" y="160" width="120" height="80" as="geometry" />
        </mxCell>
        <mxCell id="_4PlKvlCJdcLuJ5PgpxI-15" value="" style="shape=flexArrow;endArrow=classic;html=1;rounded=0;fillColor=#1ba1e2;strokeColor=#006EAF;" edge="1" parent="1" target="_4PlKvlCJdcLuJ5PgpxI-14">
          <mxGeometry width="50" height="50" relative="1" as="geometry">
            <mxPoint x="710" y="140" as="sourcePoint" />
            <mxPoint x="650" y="120" as="targetPoint" />
          </mxGeometry>
        </mxCell>
        <mxCell id="_4PlKvlCJdcLuJ5PgpxI-16" value="PUBLICA" style="text;html=1;align=center;verticalAlign=middle;resizable=0;points=[];autosize=1;strokeColor=#006EAF;fillColor=#1ba1e2;rotation=-25;fontColor=#ffffff;" vertex="1" parent="1">
          <mxGeometry x="640" y="120" width="70" height="30" as="geometry" />
        </mxCell>
        <mxCell id="_4PlKvlCJdcLuJ5PgpxI-19" value="RESEÑA" style="ellipse;whiteSpace=wrap;html=1;" vertex="1" parent="1">
          <mxGeometry x="170" y="160" width="120" height="80" as="geometry" />
        </mxCell>
        <mxCell id="_4PlKvlCJdcLuJ5PgpxI-20" value="" style="shape=flexArrow;endArrow=classic;html=1;rounded=0;entryX=0;entryY=0;entryDx=0;entryDy=0;fillColor=#60a917;strokeColor=#2D7600;" edge="1" parent="1" source="_4PlKvlCJdcLuJ5PgpxI-1" target="_4PlKvlCJdcLuJ5PgpxI-19">
          <mxGeometry width="50" height="50" relative="1" as="geometry">
            <mxPoint x="160" y="160" as="sourcePoint" />
            <mxPoint x="370" y="160" as="targetPoint" />
          </mxGeometry>
        </mxCell>
        <mxCell id="_4PlKvlCJdcLuJ5PgpxI-21" value="" style="shape=flexArrow;endArrow=classic;html=1;rounded=0;exitX=1;exitY=0;exitDx=0;exitDy=0;entryX=0;entryY=1;entryDx=0;entryDy=0;fillColor=light-dark(#FFFFFF,#66FF66);" edge="1" parent="1" source="_4PlKvlCJdcLuJ5PgpxI-19" target="_4PlKvlCJdcLuJ5PgpxI-6">
          <mxGeometry width="50" height="50" relative="1" as="geometry">
            <mxPoint x="290" y="130" as="sourcePoint" />
            <mxPoint x="500" y="130" as="targetPoint" />
          </mxGeometry>
        </mxCell>
        <mxCell id="_4PlKvlCJdcLuJ5PgpxI-22" value="ADMINISTRADOR" style="shape=umlActor;verticalLabelPosition=bottom;verticalAlign=top;html=1;outlineConnect=0;" vertex="1" parent="1">
          <mxGeometry x="330" y="592" width="77.5" height="90" as="geometry" />
        </mxCell>
        <mxCell id="_4PlKvlCJdcLuJ5PgpxI-23" value="NORMAS INCUMPLIDAS" style="ellipse;whiteSpace=wrap;html=1;" vertex="1" parent="1">
          <mxGeometry x="330" y="340" width="120" height="80" as="geometry" />
        </mxCell>
        <mxCell id="_4PlKvlCJdcLuJ5PgpxI-24" value="" style="shape=flexArrow;endArrow=classic;html=1;rounded=0;entryX=0.817;entryY=0.938;entryDx=0;entryDy=0;exitX=0;exitY=0;exitDx=0;exitDy=0;entryPerimeter=0;fillColor=light-dark(#FFFFFF,#FF66FF);" edge="1" parent="1" source="_4PlKvlCJdcLuJ5PgpxI-23" target="_4PlKvlCJdcLuJ5PgpxI-19">
          <mxGeometry width="50" height="50" relative="1" as="geometry">
            <mxPoint x="300" y="300" as="sourcePoint" />
            <mxPoint x="378" y="364" as="targetPoint" />
          </mxGeometry>
        </mxCell>
        <mxCell id="_4PlKvlCJdcLuJ5PgpxI-25" value="" style="shape=flexArrow;endArrow=classic;html=1;rounded=0;entryX=0;entryY=1;entryDx=0;entryDy=0;exitX=1;exitY=0;exitDx=0;exitDy=0;fillColor=light-dark(#FFFFFF,#FF66FF);" edge="1" parent="1" source="_4PlKvlCJdcLuJ5PgpxI-23" target="_4PlKvlCJdcLuJ5PgpxI-14">
          <mxGeometry width="50" height="50" relative="1" as="geometry">
            <mxPoint x="420" y="310" as="sourcePoint" />
            <mxPoint x="498" y="374" as="targetPoint" />
          </mxGeometry>
        </mxCell>
        <mxCell id="_4PlKvlCJdcLuJ5PgpxI-26" value="" style="shape=flexArrow;endArrow=classic;html=1;rounded=0;entryX=1;entryY=1;entryDx=0;entryDy=0;exitX=0;exitY=0.3333333333333333;exitDx=0;exitDy=0;exitPerimeter=0;fillColor=light-dark(#FFFFFF,#FF0080);strokeColor=#3700CC;" edge="1" parent="1">
          <mxGeometry width="50" height="50" relative="1" as="geometry">
            <mxPoint x="628" y="450" as="sourcePoint" />
            <mxPoint x="440.42640687119274" y="408.2842712474619" as="targetPoint" />
            <Array as="points">
              <mxPoint x="440" y="450" />
            </Array>
          </mxGeometry>
        </mxCell>
        <mxCell id="_4PlKvlCJdcLuJ5PgpxI-27" value="" style="shape=flexArrow;endArrow=classic;html=1;rounded=0;entryX=0.5;entryY=1;entryDx=0;entryDy=0;fillColor=light-dark(#FFFFFF,#FF3333);strokeColor=#6F0000;" edge="1" parent="1" target="_4PlKvlCJdcLuJ5PgpxI-23">
          <mxGeometry width="50" height="50" relative="1" as="geometry">
            <mxPoint x="390" y="590" as="sourcePoint" />
            <mxPoint x="380" y="522" as="targetPoint" />
          </mxGeometry>
        </mxCell>
        <mxCell id="_4PlKvlCJdcLuJ5PgpxI-28" value="REGISTRO" style="ellipse;whiteSpace=wrap;html=1;" vertex="1" parent="1">
          <mxGeometry x="330" y="-140" width="120" height="80" as="geometry" />
        </mxCell>
        <mxCell id="_4PlKvlCJdcLuJ5PgpxI-33" value="" style="shape=flexArrow;endArrow=classic;html=1;rounded=0;exitX=0.033;exitY=0.738;exitDx=0;exitDy=0;exitPerimeter=0;fillColor=light-dark(#FFFFFF,#FFD966);gradientColor=none;" edge="1" parent="1" source="_4PlKvlCJdcLuJ5PgpxI-28" target="_4PlKvlCJdcLuJ5PgpxI-1">
          <mxGeometry width="50" height="50" relative="1" as="geometry">
            <mxPoint x="170" y="20" as="sourcePoint" />
            <mxPoint x="220" y="-30" as="targetPoint" />
          </mxGeometry>
        </mxCell>
        <mxCell id="_4PlKvlCJdcLuJ5PgpxI-35" value="USUARIO" style="shape=umlActor;verticalLabelPosition=bottom;verticalAlign=top;html=1;outlineConnect=0;" vertex="1" parent="1">
          <mxGeometry x="30" y="-200" width="80" height="90" as="geometry" />
        </mxCell>
        <mxCell id="_4PlKvlCJdcLuJ5PgpxI-37" value="" style="shape=flexArrow;endArrow=classic;html=1;rounded=0;exitX=1;exitY=0.5;exitDx=0;exitDy=0;fillColor=light-dark(#FFFFFF,#FFD966);" edge="1" parent="1" source="_4PlKvlCJdcLuJ5PgpxI-28" target="_4PlKvlCJdcLuJ5PgpxI-3">
          <mxGeometry width="50" height="50" relative="1" as="geometry">
            <mxPoint x="540" y="-110" as="sourcePoint" />
            <mxPoint x="724" y="-6" as="targetPoint" />
          </mxGeometry>
        </mxCell>
        <mxCell id="_4PlKvlCJdcLuJ5PgpxI-38" value="" style="shape=flexArrow;endArrow=classic;html=1;rounded=0;entryX=1;entryY=1;entryDx=0;entryDy=0;fillColor=light-dark(#FFFFFF,#66FFFF);" edge="1" parent="1" source="_4PlKvlCJdcLuJ5PgpxI-14" target="_4PlKvlCJdcLuJ5PgpxI-6">
          <mxGeometry width="50" height="50" relative="1" as="geometry">
            <mxPoint x="587" y="120" as="sourcePoint" />
            <mxPoint x="470" y="161" as="targetPoint" />
          </mxGeometry>
        </mxCell>
        <mxCell id="_4PlKvlCJdcLuJ5PgpxI-39" value="MENSAJES" style="ellipse;whiteSpace=wrap;html=1;" vertex="1" parent="1">
          <mxGeometry x="330" y="220" width="120" height="80" as="geometry" />
        </mxCell>
        <mxCell id="_4PlKvlCJdcLuJ5PgpxI-40" value="" style="shape=flexArrow;endArrow=classic;html=1;rounded=0;exitX=0.5;exitY=0;exitDx=0;exitDy=0;entryX=0.5;entryY=1;entryDx=0;entryDy=0;fillColor=light-dark(#FFFFFF,#FF66FF);" edge="1" parent="1" source="_4PlKvlCJdcLuJ5PgpxI-23" target="_4PlKvlCJdcLuJ5PgpxI-39">
          <mxGeometry width="50" height="50" relative="1" as="geometry">
            <mxPoint x="360" y="270" as="sourcePoint" />
            <mxPoint x="410" y="220" as="targetPoint" />
          </mxGeometry>
        </mxCell>
        <mxCell id="_4PlKvlCJdcLuJ5PgpxI-41" value="" style="shape=flexArrow;endArrow=classic;html=1;rounded=0;entryX=0;entryY=1;entryDx=0;entryDy=0;fillColor=#60a917;strokeColor=#2D7600;" edge="1" parent="1" target="_4PlKvlCJdcLuJ5PgpxI-39">
          <mxGeometry width="50" height="50" relative="1" as="geometry">
            <mxPoint x="80" y="150" as="sourcePoint" />
            <mxPoint x="80" y="330" as="targetPoint" />
            <Array as="points">
              <mxPoint x="80" y="288" />
            </Array>
          </mxGeometry>
        </mxCell>
        <mxCell id="_4PlKvlCJdcLuJ5PgpxI-43" value="ENVIA" style="text;html=1;align=center;verticalAlign=middle;resizable=0;points=[];autosize=1;strokeColor=#2D7600;fillColor=#60a917;fontColor=#ffffff;" vertex="1" parent="1">
          <mxGeometry x="79.62" y="260" width="60" height="30" as="geometry" />
        </mxCell>
        <mxCell id="_4PlKvlCJdcLuJ5PgpxI-44" value="" style="shape=flexArrow;endArrow=classic;html=1;rounded=0;entryX=0.921;entryY=0.846;entryDx=0;entryDy=0;entryPerimeter=0;fillColor=#1ba1e2;strokeColor=#006EAF;" edge="1" parent="1" target="_4PlKvlCJdcLuJ5PgpxI-39">
          <mxGeometry width="50" height="50" relative="1" as="geometry">
            <mxPoint x="740" y="150" as="sourcePoint" />
            <mxPoint x="740" y="310" as="targetPoint" />
            <Array as="points">
              <mxPoint x="740" y="288" />
            </Array>
          </mxGeometry>
        </mxCell>
        <mxCell id="_4PlKvlCJdcLuJ5PgpxI-46" value="RESPONDE" style="text;html=1;align=center;verticalAlign=middle;resizable=0;points=[];autosize=1;strokeColor=#006EAF;fillColor=#1ba1e2;fontColor=#ffffff;" vertex="1" parent="1">
          <mxGeometry x="601" y="260" width="90" height="30" as="geometry" />
        </mxCell>
        <mxCell id="_4PlKvlCJdcLuJ5PgpxI-48" value="" style="shape=flexArrow;endArrow=classic;html=1;rounded=0;strokeColor=#000000;fillColor=light-dark(#FFFFFF,#A680B8);" edge="1" parent="1" target="_4PlKvlCJdcLuJ5PgpxI-28">
          <mxGeometry width="50" height="50" relative="1" as="geometry">
            <mxPoint x="120" y="-100" as="sourcePoint" />
            <mxPoint x="330.00000000000205" y="-250" as="targetPoint" />
          </mxGeometry>
        </mxCell>
        <mxCell id="_4PlKvlCJdcLuJ5PgpxI-49" value="ERRORES" style="ellipse;whiteSpace=wrap;html=1;" vertex="1" parent="1">
          <mxGeometry x="139.62" y="460" width="120" height="80" as="geometry" />
        </mxCell>
        <mxCell id="_4PlKvlCJdcLuJ5PgpxI-50" value="" style="shape=flexArrow;endArrow=classic;html=1;rounded=0;exitX=0;exitY=0.3333333333333333;exitDx=0;exitDy=0;exitPerimeter=0;entryX=0.753;entryY=0.875;entryDx=0;entryDy=0;entryPerimeter=0;fillColor=light-dark(#FFFFFF,#FF3333);strokeColor=#6F0000;" edge="1" parent="1" source="_4PlKvlCJdcLuJ5PgpxI-22" target="_4PlKvlCJdcLuJ5PgpxI-49">
          <mxGeometry width="50" height="50" relative="1" as="geometry">
            <mxPoint x="330.0000000000002" y="602" as="sourcePoint" />
            <mxPoint x="230" y="550" as="targetPoint" />
            <Array as="points">
              <mxPoint x="230" y="622" />
            </Array>
          </mxGeometry>
        </mxCell>
        <mxCell id="_4PlKvlCJdcLuJ5PgpxI-51" value="SOLUCIONA" style="text;html=1;align=center;verticalAlign=middle;resizable=0;points=[];autosize=1;strokeColor=default;fillColor=light-dark(#FFFFFF,#FF3333);" vertex="1" parent="1">
          <mxGeometry x="240" y="590" width="90" height="30" as="geometry" />
        </mxCell>
        <mxCell id="_4PlKvlCJdcLuJ5PgpxI-53" value="MODERAR" style="text;html=1;align=center;verticalAlign=middle;resizable=0;points=[];autosize=1;strokeColor=default;fillColor=light-dark(#FFFFFF,#FF0080);" vertex="1" parent="1">
          <mxGeometry x="478" y="420" width="80" height="30" as="geometry" />
        </mxCell>
        <mxCell id="_4PlKvlCJdcLuJ5PgpxI-55" value="MODERAR" style="text;html=1;align=center;verticalAlign=middle;resizable=0;points=[];autosize=1;strokeColor=default;fillColor=light-dark(#FFFFFF,#FF3333);rotation=-90;" vertex="1" parent="1">
          <mxGeometry x="334" y="530" width="80" height="30" as="geometry" />
        </mxCell>
        <mxCell id="_4PlKvlCJdcLuJ5PgpxI-57" value="" style="shape=flexArrow;endArrow=classic;html=1;rounded=0;entryX=1.01;entryY=0.62;entryDx=0;entryDy=0;entryPerimeter=0;exitX=1.01;exitY=0.62;exitDx=0;exitDy=0;exitPerimeter=0;fillColor=light-dark(#FFFFFF,#FF66FF);" edge="1" parent="1" source="_4PlKvlCJdcLuJ5PgpxI-23">
          <mxGeometry width="50" height="50" relative="1" as="geometry">
            <mxPoint x="480" y="390" as="sourcePoint" />
            <mxPoint x="770" y="150" as="targetPoint" />
            <Array as="points">
              <mxPoint x="770" y="390" />
            </Array>
          </mxGeometry>
        </mxCell>
        <mxCell id="_4PlKvlCJdcLuJ5PgpxI-56" value="" style="shape=flexArrow;endArrow=classic;html=1;rounded=0;entryX=0;entryY=0.625;entryDx=0;entryDy=0;entryPerimeter=0;exitX=0;exitY=0.625;exitDx=0;exitDy=0;exitPerimeter=0;fillColor=light-dark(#FFFFFF,#FF66FF);strokeColor=#6F0000;" edge="1" parent="1" source="_4PlKvlCJdcLuJ5PgpxI-23">
          <mxGeometry width="50" height="50" relative="1" as="geometry">
            <mxPoint x="298" y="290" as="sourcePoint" />
            <mxPoint x="30" y="122" as="targetPoint" />
            <Array as="points">
              <mxPoint x="30" y="390" />
            </Array>
          </mxGeometry>
        </mxCell>
        <mxCell id="_4PlKvlCJdcLuJ5PgpxI-60" value="" style="shape=flexArrow;endArrow=classic;html=1;rounded=0;entryX=0;entryY=0.5;entryDx=0;entryDy=0;exitX=0;exitY=0.3333333333333333;exitDx=0;exitDy=0;exitPerimeter=0;fillColor=#60a917;strokeColor=#2D7600;" edge="1" parent="1" source="_4PlKvlCJdcLuJ5PgpxI-1" target="_4PlKvlCJdcLuJ5PgpxI-49">
          <mxGeometry width="50" height="50" relative="1" as="geometry">
            <mxPoint x="220" y="130" as="sourcePoint" />
            <mxPoint x="488" y="298" as="targetPoint" />
            <Array as="points">
              <mxPoint x="-50" y="60" />
              <mxPoint x="-50" y="270" />
              <mxPoint x="-50" y="500" />
            </Array>
          </mxGeometry>
        </mxCell>
        <mxCell id="_4PlKvlCJdcLuJ5PgpxI-61" value="" style="shape=flexArrow;endArrow=classic;html=1;rounded=0;fillColor=light-dark(#FFFFFF,#A680B8);strokeColor=default;" edge="1" parent="1">
          <mxGeometry width="50" height="50" relative="1" as="geometry">
            <mxPoint x="30" y="-170" as="sourcePoint" />
            <mxPoint x="150" y="530" as="targetPoint" />
            <Array as="points">
              <mxPoint x="-120" y="-170" />
              <mxPoint x="-120" y="50" />
              <mxPoint x="-120" y="530" />
            </Array>
          </mxGeometry>
        </mxCell>
        <mxCell id="_4PlKvlCJdcLuJ5PgpxI-62" value="" style="shape=flexArrow;endArrow=classic;html=1;rounded=0;entryX=0.337;entryY=1;entryDx=0;entryDy=0;entryPerimeter=0;fillColor=#1ba1e2;strokeColor=#006EAF;" edge="1" parent="1" target="_4PlKvlCJdcLuJ5PgpxI-49">
          <mxGeometry width="50" height="50" relative="1" as="geometry">
            <mxPoint x="800" y="130" as="sourcePoint" />
            <mxPoint x="200" y="580" as="targetPoint" />
            <Array as="points">
              <mxPoint x="800" y="210" />
              <mxPoint x="800" y="430" />
              <mxPoint x="800" y="750" />
              <mxPoint x="490" y="750" />
              <mxPoint x="180" y="750" />
            </Array>
          </mxGeometry>
        </mxCell>
        <mxCell id="_4PlKvlCJdcLuJ5PgpxI-63" value="REPORTA" style="text;html=1;align=center;verticalAlign=middle;resizable=0;points=[];autosize=1;strokeColor=#006EAF;fillColor=#1ba1e2;fontColor=#ffffff;" vertex="1" parent="1">
          <mxGeometry x="720" y="720" width="80" height="30" as="geometry" />
        </mxCell>
        <mxCell id="_4PlKvlCJdcLuJ5PgpxI-64" value="REPORTA" style="text;html=1;align=center;verticalAlign=middle;resizable=0;points=[];autosize=1;strokeColor=default;fillColor=light-dark(#FFFFFF,#A680B8);" vertex="1" parent="1">
          <mxGeometry x="-110" y="530" width="80" height="30" as="geometry" />
        </mxCell>
        <mxCell id="_4PlKvlCJdcLuJ5PgpxI-65" value="REPORTA" style="text;html=1;align=center;verticalAlign=middle;resizable=0;points=[];autosize=1;strokeColor=#2D7600;fillColor=#60a917;fontColor=#ffffff;" vertex="1" parent="1">
          <mxGeometry x="-50" y="470" width="80" height="30" as="geometry" />
        </mxCell>
        <mxCell id="_4PlKvlCJdcLuJ5PgpxI-66" value="REGISTRO INTERNO" style="ellipse;whiteSpace=wrap;html=1;" vertex="1" parent="1">
          <mxGeometry x="561" y="620" width="120" height="80" as="geometry" />
        </mxCell>
        <mxCell id="_4PlKvlCJdcLuJ5PgpxI-67" value="" style="shape=flexArrow;endArrow=classic;html=1;rounded=0;fillColor=light-dark(#FFFFFF,#FF3333);strokeColor=#6F0000;" edge="1" parent="1">
          <mxGeometry width="50" height="50" relative="1" as="geometry">
            <mxPoint x="410" y="670" as="sourcePoint" />
            <mxPoint x="560" y="670" as="targetPoint" />
          </mxGeometry>
        </mxCell>
        <mxCell id="_4PlKvlCJdcLuJ5PgpxI-68" value="" style="shape=flexArrow;endArrow=classic;html=1;rounded=0;entryX=0.573;entryY=-0.011;entryDx=0;entryDy=0;entryPerimeter=0;fillColor=light-dark(#FFFFFF,#FF0080);strokeColor=#3700CC;" edge="1" parent="1" target="_4PlKvlCJdcLuJ5PgpxI-66">
          <mxGeometry width="50" height="50" relative="1" as="geometry">
            <mxPoint x="630" y="530" as="sourcePoint" />
            <mxPoint x="840" y="560" as="targetPoint" />
          </mxGeometry>
        </mxCell>
        <mxCell id="ssuQTWW9ek1cAEUhgE2z-2" value="" style="shape=flexArrow;endArrow=classic;html=1;rounded=0;fillColor=light-dark(#FFFFFF,#FF0080);strokeColor=#3700CC;" edge="1" parent="1">
          <mxGeometry width="50" height="50" relative="1" as="geometry">
            <mxPoint x="610" y="490" as="sourcePoint" />
            <mxPoint x="260" y="490" as="targetPoint" />
          </mxGeometry>
        </mxCell>
        <mxCell id="ssuQTWW9ek1cAEUhgE2z-4" value="RESPONDE CONSULTAS" style="text;html=1;align=center;verticalAlign=middle;resizable=0;points=[];autosize=1;strokeColor=default;fillColor=light-dark(#FFFFFF,#FF0080);" vertex="1" parent="1">
          <mxGeometry x="415" y="490" width="170" height="30" as="geometry" />
        </mxCell>
      </root>
    </mxGraphModel>
  </diagram>
</mxfile>
